<mxfile host="app.diagrams.net" agent="Mozilla/5.0 (Windows NT 10.0; Win64; x64) AppleWebKit/537.36 (KHTML, like Gecko) Chrome/131.0.0.0 Safari/537.36" version="25.0.3">
  <diagram id="ec2jGUqDhFByLbluPuBg" name="Page-1">
    <mxGraphModel dx="1434" dy="746" grid="1" gridSize="10" guides="1" tooltips="1" connect="1" arrows="1" fold="1" page="1" pageScale="1" pageWidth="827" pageHeight="1169" math="0" shadow="0">
      <root>
        <mxCell id="0" />
        <mxCell id="1" parent="0" />
        <mxCell id="s0e9WxwOB7Lj3s8APu_O-11" style="edgeStyle=orthogonalEdgeStyle;rounded=0;orthogonalLoop=1;jettySize=auto;html=1;" edge="1" parent="1" source="s0e9WxwOB7Lj3s8APu_O-7" target="s0e9WxwOB7Lj3s8APu_O-10">
          <mxGeometry relative="1" as="geometry" />
        </mxCell>
        <mxCell id="s0e9WxwOB7Lj3s8APu_O-7" value="Indexer" style="rounded=0;whiteSpace=wrap;html=1;" vertex="1" parent="1">
          <mxGeometry x="430" y="600" width="120" height="60" as="geometry" />
        </mxCell>
        <mxCell id="s0e9WxwOB7Lj3s8APu_O-26" style="edgeStyle=orthogonalEdgeStyle;rounded=0;orthogonalLoop=1;jettySize=auto;html=1;" edge="1" parent="1" source="s0e9WxwOB7Lj3s8APu_O-10" target="s0e9WxwOB7Lj3s8APu_O-15">
          <mxGeometry relative="1" as="geometry" />
        </mxCell>
        <mxCell id="s0e9WxwOB7Lj3s8APu_O-27" style="edgeStyle=orthogonalEdgeStyle;rounded=0;orthogonalLoop=1;jettySize=auto;html=1;entryX=0.5;entryY=0;entryDx=0;entryDy=0;" edge="1" parent="1" source="s0e9WxwOB7Lj3s8APu_O-10" target="s0e9WxwOB7Lj3s8APu_O-14">
          <mxGeometry relative="1" as="geometry" />
        </mxCell>
        <mxCell id="s0e9WxwOB7Lj3s8APu_O-28" style="edgeStyle=orthogonalEdgeStyle;rounded=0;orthogonalLoop=1;jettySize=auto;html=1;entryX=0.5;entryY=0;entryDx=0;entryDy=0;" edge="1" parent="1" source="s0e9WxwOB7Lj3s8APu_O-10" target="s0e9WxwOB7Lj3s8APu_O-16">
          <mxGeometry relative="1" as="geometry" />
        </mxCell>
        <mxCell id="s0e9WxwOB7Lj3s8APu_O-29" style="edgeStyle=orthogonalEdgeStyle;rounded=0;orthogonalLoop=1;jettySize=auto;html=1;entryX=0.5;entryY=0;entryDx=0;entryDy=0;" edge="1" parent="1" source="s0e9WxwOB7Lj3s8APu_O-10" target="s0e9WxwOB7Lj3s8APu_O-17">
          <mxGeometry relative="1" as="geometry" />
        </mxCell>
        <mxCell id="s0e9WxwOB7Lj3s8APu_O-30" style="edgeStyle=orthogonalEdgeStyle;rounded=0;orthogonalLoop=1;jettySize=auto;html=1;" edge="1" parent="1" source="s0e9WxwOB7Lj3s8APu_O-10" target="s0e9WxwOB7Lj3s8APu_O-18">
          <mxGeometry relative="1" as="geometry" />
        </mxCell>
        <mxCell id="s0e9WxwOB7Lj3s8APu_O-31" style="edgeStyle=orthogonalEdgeStyle;rounded=0;orthogonalLoop=1;jettySize=auto;html=1;entryX=0.5;entryY=0;entryDx=0;entryDy=0;" edge="1" parent="1" source="s0e9WxwOB7Lj3s8APu_O-10" target="s0e9WxwOB7Lj3s8APu_O-20">
          <mxGeometry relative="1" as="geometry" />
        </mxCell>
        <mxCell id="s0e9WxwOB7Lj3s8APu_O-35" style="edgeStyle=orthogonalEdgeStyle;rounded=0;orthogonalLoop=1;jettySize=auto;html=1;entryX=0.5;entryY=0;entryDx=0;entryDy=0;" edge="1" parent="1" source="s0e9WxwOB7Lj3s8APu_O-10" target="s0e9WxwOB7Lj3s8APu_O-32">
          <mxGeometry relative="1" as="geometry" />
        </mxCell>
        <mxCell id="s0e9WxwOB7Lj3s8APu_O-38" style="edgeStyle=orthogonalEdgeStyle;rounded=0;orthogonalLoop=1;jettySize=auto;html=1;" edge="1" parent="1" source="s0e9WxwOB7Lj3s8APu_O-10" target="s0e9WxwOB7Lj3s8APu_O-37">
          <mxGeometry relative="1" as="geometry" />
        </mxCell>
        <mxCell id="s0e9WxwOB7Lj3s8APu_O-43" style="edgeStyle=orthogonalEdgeStyle;rounded=0;orthogonalLoop=1;jettySize=auto;html=1;" edge="1" parent="1" source="s0e9WxwOB7Lj3s8APu_O-10" target="s0e9WxwOB7Lj3s8APu_O-13">
          <mxGeometry relative="1" as="geometry" />
        </mxCell>
        <mxCell id="s0e9WxwOB7Lj3s8APu_O-10" value="Properties" style="rounded=0;whiteSpace=wrap;html=1;" vertex="1" parent="1">
          <mxGeometry x="430" y="710" width="120" height="60" as="geometry" />
        </mxCell>
        <mxCell id="s0e9WxwOB7Lj3s8APu_O-13" value="Number of items" style="ellipse;whiteSpace=wrap;html=1;align=center;" vertex="1" parent="1">
          <mxGeometry x="314" y="800" width="100" height="40" as="geometry" />
        </mxCell>
        <mxCell id="s0e9WxwOB7Lj3s8APu_O-14" value="getItem" style="ellipse;whiteSpace=wrap;html=1;align=center;" vertex="1" parent="1">
          <mxGeometry x="570" y="800" width="100" height="40" as="geometry" />
        </mxCell>
        <mxCell id="s0e9WxwOB7Lj3s8APu_O-45" style="edgeStyle=orthogonalEdgeStyle;rounded=0;orthogonalLoop=1;jettySize=auto;html=1;entryX=0.5;entryY=0;entryDx=0;entryDy=0;" edge="1" parent="1" source="s0e9WxwOB7Lj3s8APu_O-15" target="s0e9WxwOB7Lj3s8APu_O-44">
          <mxGeometry relative="1" as="geometry" />
        </mxCell>
        <mxCell id="s0e9WxwOB7Lj3s8APu_O-15" value="Items (set or list or dictionary idk)" style="ellipse;whiteSpace=wrap;html=1;align=center;" vertex="1" parent="1">
          <mxGeometry x="440" y="800" width="100" height="40" as="geometry" />
        </mxCell>
        <mxCell id="s0e9WxwOB7Lj3s8APu_O-16" value="addItem" style="ellipse;whiteSpace=wrap;html=1;align=center;" vertex="1" parent="1">
          <mxGeometry x="680" y="800" width="100" height="40" as="geometry" />
        </mxCell>
        <mxCell id="s0e9WxwOB7Lj3s8APu_O-17" value="addrecipe" style="ellipse;whiteSpace=wrap;html=1;align=center;" vertex="1" parent="1">
          <mxGeometry x="800" y="800" width="100" height="40" as="geometry" />
        </mxCell>
        <mxCell id="s0e9WxwOB7Lj3s8APu_O-18" value="recipes?" style="ellipse;whiteSpace=wrap;html=1;align=center;" vertex="1" parent="1">
          <mxGeometry x="920" y="800" width="100" height="40" as="geometry" />
        </mxCell>
        <mxCell id="s0e9WxwOB7Lj3s8APu_O-19" value="caps options" style="ellipse;whiteSpace=wrap;html=1;align=center;" vertex="1" parent="1">
          <mxGeometry x="980" y="990" width="100" height="40" as="geometry" />
        </mxCell>
        <mxCell id="s0e9WxwOB7Lj3s8APu_O-24" style="edgeStyle=orthogonalEdgeStyle;rounded=0;orthogonalLoop=1;jettySize=auto;html=1;" edge="1" parent="1" source="s0e9WxwOB7Lj3s8APu_O-20" target="s0e9WxwOB7Lj3s8APu_O-23">
          <mxGeometry relative="1" as="geometry" />
        </mxCell>
        <mxCell id="s0e9WxwOB7Lj3s8APu_O-20" value="settings" style="ellipse;whiteSpace=wrap;html=1;align=center;" vertex="1" parent="1">
          <mxGeometry x="1040" y="800" width="100" height="40" as="geometry" />
        </mxCell>
        <mxCell id="s0e9WxwOB7Lj3s8APu_O-21" value="use emoji" style="ellipse;whiteSpace=wrap;html=1;align=center;" vertex="1" parent="1">
          <mxGeometry x="1110" y="990" width="100" height="40" as="geometry" />
        </mxCell>
        <mxCell id="s0e9WxwOB7Lj3s8APu_O-39" style="edgeStyle=orthogonalEdgeStyle;rounded=0;orthogonalLoop=1;jettySize=auto;html=1;entryX=0.5;entryY=0;entryDx=0;entryDy=0;" edge="1" parent="1" source="s0e9WxwOB7Lj3s8APu_O-23" target="s0e9WxwOB7Lj3s8APu_O-19">
          <mxGeometry relative="1" as="geometry" />
        </mxCell>
        <mxCell id="s0e9WxwOB7Lj3s8APu_O-40" style="edgeStyle=orthogonalEdgeStyle;rounded=0;orthogonalLoop=1;jettySize=auto;html=1;" edge="1" parent="1" source="s0e9WxwOB7Lj3s8APu_O-23" target="s0e9WxwOB7Lj3s8APu_O-21">
          <mxGeometry relative="1" as="geometry" />
        </mxCell>
        <mxCell id="s0e9WxwOB7Lj3s8APu_O-41" style="edgeStyle=orthogonalEdgeStyle;rounded=0;orthogonalLoop=1;jettySize=auto;html=1;" edge="1" parent="1" source="s0e9WxwOB7Lj3s8APu_O-23" target="s0e9WxwOB7Lj3s8APu_O-34">
          <mxGeometry relative="1" as="geometry" />
        </mxCell>
        <mxCell id="s0e9WxwOB7Lj3s8APu_O-42" style="edgeStyle=orthogonalEdgeStyle;rounded=0;orthogonalLoop=1;jettySize=auto;html=1;entryX=0.5;entryY=0;entryDx=0;entryDy=0;" edge="1" parent="1" source="s0e9WxwOB7Lj3s8APu_O-23" target="s0e9WxwOB7Lj3s8APu_O-33">
          <mxGeometry relative="1" as="geometry" />
        </mxCell>
        <mxCell id="s0e9WxwOB7Lj3s8APu_O-55" style="edgeStyle=orthogonalEdgeStyle;rounded=0;orthogonalLoop=1;jettySize=auto;html=1;entryX=1;entryY=0;entryDx=0;entryDy=0;" edge="1" parent="1" source="s0e9WxwOB7Lj3s8APu_O-23" target="s0e9WxwOB7Lj3s8APu_O-44">
          <mxGeometry relative="1" as="geometry" />
        </mxCell>
        <mxCell id="s0e9WxwOB7Lj3s8APu_O-23" value="Specified by something?" style="rounded=0;whiteSpace=wrap;html=1;" vertex="1" parent="1">
          <mxGeometry x="1030" y="880" width="120" height="60" as="geometry" />
        </mxCell>
        <mxCell id="s0e9WxwOB7Lj3s8APu_O-32" value="get lineage" style="ellipse;whiteSpace=wrap;html=1;align=center;" vertex="1" parent="1">
          <mxGeometry x="1170" y="800" width="100" height="40" as="geometry" />
        </mxCell>
        <mxCell id="s0e9WxwOB7Lj3s8APu_O-33" value="others (other element properties?" style="ellipse;whiteSpace=wrap;html=1;align=center;" vertex="1" parent="1">
          <mxGeometry x="1370" y="990" width="130" height="40" as="geometry" />
        </mxCell>
        <mxCell id="s0e9WxwOB7Lj3s8APu_O-34" value="use fd" style="ellipse;whiteSpace=wrap;html=1;align=center;" vertex="1" parent="1">
          <mxGeometry x="1230" y="990" width="100" height="40" as="geometry" />
        </mxCell>
        <mxCell id="s0e9WxwOB7Lj3s8APu_O-36" value="text (or generalised default property)" style="ellipse;whiteSpace=wrap;html=1;align=center;" vertex="1" parent="1">
          <mxGeometry x="314" y="1010" width="140" height="40" as="geometry" />
        </mxCell>
        <mxCell id="s0e9WxwOB7Lj3s8APu_O-37" value="others (generalised somehow)" style="ellipse;whiteSpace=wrap;html=1;align=center;" vertex="1" parent="1">
          <mxGeometry x="1320" y="800" width="100" height="40" as="geometry" />
        </mxCell>
        <mxCell id="s0e9WxwOB7Lj3s8APu_O-47" style="edgeStyle=orthogonalEdgeStyle;rounded=0;orthogonalLoop=1;jettySize=auto;html=1;" edge="1" parent="1" source="s0e9WxwOB7Lj3s8APu_O-44" target="s0e9WxwOB7Lj3s8APu_O-36">
          <mxGeometry relative="1" as="geometry" />
        </mxCell>
        <mxCell id="s0e9WxwOB7Lj3s8APu_O-51" style="edgeStyle=orthogonalEdgeStyle;rounded=0;orthogonalLoop=1;jettySize=auto;html=1;" edge="1" parent="1" source="s0e9WxwOB7Lj3s8APu_O-44" target="s0e9WxwOB7Lj3s8APu_O-49">
          <mxGeometry relative="1" as="geometry">
            <Array as="points">
              <mxPoint x="490" y="985" />
              <mxPoint x="520" y="985" />
            </Array>
          </mxGeometry>
        </mxCell>
        <mxCell id="s0e9WxwOB7Lj3s8APu_O-52" style="edgeStyle=orthogonalEdgeStyle;rounded=0;orthogonalLoop=1;jettySize=auto;html=1;" edge="1" parent="1" source="s0e9WxwOB7Lj3s8APu_O-44" target="s0e9WxwOB7Lj3s8APu_O-48">
          <mxGeometry relative="1" as="geometry" />
        </mxCell>
        <mxCell id="s0e9WxwOB7Lj3s8APu_O-53" style="edgeStyle=orthogonalEdgeStyle;rounded=0;orthogonalLoop=1;jettySize=auto;html=1;entryX=0.5;entryY=0;entryDx=0;entryDy=0;" edge="1" parent="1" source="s0e9WxwOB7Lj3s8APu_O-44" target="s0e9WxwOB7Lj3s8APu_O-50">
          <mxGeometry relative="1" as="geometry" />
        </mxCell>
        <mxCell id="s0e9WxwOB7Lj3s8APu_O-44" value="item object/properties" style="rounded=0;whiteSpace=wrap;html=1;" vertex="1" parent="1">
          <mxGeometry x="430" y="900" width="120" height="60" as="geometry" />
        </mxCell>
        <mxCell id="s0e9WxwOB7Lj3s8APu_O-48" value="fd?" style="ellipse;whiteSpace=wrap;html=1;align=center;" vertex="1" parent="1">
          <mxGeometry x="580" y="1010" width="100" height="40" as="geometry" />
        </mxCell>
        <mxCell id="s0e9WxwOB7Lj3s8APu_O-49" value="emoji?" style="ellipse;whiteSpace=wrap;html=1;align=center;" vertex="1" parent="1">
          <mxGeometry x="470" y="1010" width="100" height="40" as="geometry" />
        </mxCell>
        <mxCell id="s0e9WxwOB7Lj3s8APu_O-50" value="others?" style="ellipse;whiteSpace=wrap;html=1;align=center;" vertex="1" parent="1">
          <mxGeometry x="690" y="1010" width="100" height="40" as="geometry" />
        </mxCell>
      </root>
    </mxGraphModel>
  </diagram>
</mxfile>
